<mxfile host="app.diagrams.net" agent="Mozilla/5.0 (Windows NT 10.0; Win64; x64) AppleWebKit/537.36 (KHTML, like Gecko) Chrome/134.0.0.0 YaBrowser/25.4.0.0 Safari/537.36" version="27.1.6" pages="2">
  <diagram name="Страница — 1" id="nUEe4k0yklZtBq0wYK_H">
    <mxGraphModel dx="984" dy="547" grid="1" gridSize="10" guides="1" tooltips="1" connect="1" arrows="1" fold="1" page="1" pageScale="1" pageWidth="827" pageHeight="1169" math="0" shadow="0">
      <root>
        <mxCell id="0" />
        <mxCell id="1" parent="0" />
        <mxCell id="WMLubfFGsWbqZAyWGMQB-41" style="edgeStyle=none;curved=1;rounded=0;orthogonalLoop=1;jettySize=auto;html=1;entryX=0.5;entryY=0;entryDx=0;entryDy=0;fontSize=12;startSize=8;endSize=8;" parent="1" source="WMLubfFGsWbqZAyWGMQB-42" target="WMLubfFGsWbqZAyWGMQB-50" edge="1">
          <mxGeometry relative="1" as="geometry">
            <mxPoint x="260" y="548" as="targetPoint" />
          </mxGeometry>
        </mxCell>
        <mxCell id="WMLubfFGsWbqZAyWGMQB-42" value="Для каждой fd&amp;nbsp;∈ F" style="shape=loopLimit;whiteSpace=wrap;html=1;" parent="1" vertex="1">
          <mxGeometry x="170" y="490" width="180" height="28" as="geometry" />
        </mxCell>
        <mxCell id="WMLubfFGsWbqZAyWGMQB-55" style="edgeStyle=orthogonalEdgeStyle;rounded=0;orthogonalLoop=1;jettySize=auto;html=1;entryX=0.5;entryY=1;entryDx=0;entryDy=0;" parent="1" source="WMLubfFGsWbqZAyWGMQB-50" target="WMLubfFGsWbqZAyWGMQB-52" edge="1">
          <mxGeometry relative="1" as="geometry" />
        </mxCell>
        <mxCell id="WMLubfFGsWbqZAyWGMQB-50" value="L := L ∪ fd.детерминант&lt;div&gt;R := L ∪ fd.зависимая&lt;/div&gt;" style="rounded=0;whiteSpace=wrap;html=1;" parent="1" vertex="1">
          <mxGeometry x="170" y="536" width="180" height="40" as="geometry" />
        </mxCell>
        <mxCell id="WMLubfFGsWbqZAyWGMQB-54" value="" style="group" parent="1" vertex="1" connectable="0">
          <mxGeometry x="170" y="600" width="180" height="30" as="geometry" />
        </mxCell>
        <mxCell id="WMLubfFGsWbqZAyWGMQB-52" value="" style="shape=loopLimit;whiteSpace=wrap;html=1;rotation=-180;" parent="WMLubfFGsWbqZAyWGMQB-54" vertex="1">
          <mxGeometry y="5.329070518200748e-15" width="180" height="29.999999999999986" as="geometry" />
        </mxCell>
        <mxCell id="WMLubfFGsWbqZAyWGMQB-53" value="&lt;font style=&quot;font-size: 12px;&quot;&gt;Конец цикла по fd&amp;nbsp;∈ F&lt;/font&gt;" style="text;strokeColor=none;fillColor=none;html=1;align=center;verticalAlign=middle;whiteSpace=wrap;rounded=0;fontSize=16;" parent="WMLubfFGsWbqZAyWGMQB-54" vertex="1">
          <mxGeometry x="12.66136363636364" y="3.552713678800501e-15" width="154.67727272727276" height="22.499999999999986" as="geometry" />
        </mxCell>
        <mxCell id="WMLubfFGsWbqZAyWGMQB-64" style="edgeStyle=orthogonalEdgeStyle;rounded=0;orthogonalLoop=1;jettySize=auto;html=1;entryX=0.5;entryY=0;entryDx=0;entryDy=0;" parent="1" source="WMLubfFGsWbqZAyWGMQB-56" target="WMLubfFGsWbqZAyWGMQB-63" edge="1">
          <mxGeometry relative="1" as="geometry" />
        </mxCell>
        <mxCell id="WMLubfFGsWbqZAyWGMQB-56" value="B := L ∩ R&lt;div&gt;L := L - B&lt;/div&gt;&lt;div&gt;R := R - B&lt;/div&gt;&lt;div&gt;N := A - L - R - B&lt;/div&gt;&lt;div&gt;обяз_атр := L&amp;nbsp;∪ N&lt;/div&gt;" style="rounded=0;whiteSpace=wrap;html=1;" parent="1" vertex="1">
          <mxGeometry x="170" y="650" width="180" height="76" as="geometry" />
        </mxCell>
        <mxCell id="WMLubfFGsWbqZAyWGMQB-59" style="edgeStyle=orthogonalEdgeStyle;rounded=0;orthogonalLoop=1;jettySize=auto;html=1;entryX=0.5;entryY=0;entryDx=0;entryDy=0;" parent="1" source="WMLubfFGsWbqZAyWGMQB-57" target="WMLubfFGsWbqZAyWGMQB-58" edge="1">
          <mxGeometry relative="1" as="geometry" />
        </mxCell>
        <mxCell id="WMLubfFGsWbqZAyWGMQB-57" value="Вход: А - мн-во атрибутов;&lt;div&gt;F - мн-во ФЗ&lt;/div&gt;" style="shape=parallelogram;perimeter=parallelogramPerimeter;whiteSpace=wrap;html=1;fixedSize=1;" parent="1" vertex="1">
          <mxGeometry x="170" y="373" width="180" height="50" as="geometry" />
        </mxCell>
        <mxCell id="WMLubfFGsWbqZAyWGMQB-68" style="edgeStyle=orthogonalEdgeStyle;rounded=0;orthogonalLoop=1;jettySize=auto;html=1;entryX=0.5;entryY=0;entryDx=0;entryDy=0;exitX=0.5;exitY=1;exitDx=0;exitDy=0;" parent="1" source="WMLubfFGsWbqZAyWGMQB-58" target="WMLubfFGsWbqZAyWGMQB-42" edge="1">
          <mxGeometry relative="1" as="geometry" />
        </mxCell>
        <mxCell id="WMLubfFGsWbqZAyWGMQB-58" value="L:=&amp;nbsp;∅&lt;div&gt;R:=&amp;nbsp;∅&lt;/div&gt;" style="rounded=0;whiteSpace=wrap;html=1;" parent="1" vertex="1">
          <mxGeometry x="170" y="442" width="180" height="30" as="geometry" />
        </mxCell>
        <mxCell id="WMLubfFGsWbqZAyWGMQB-62" style="edgeStyle=orthogonalEdgeStyle;rounded=0;orthogonalLoop=1;jettySize=auto;html=1;entryX=0.5;entryY=0;entryDx=0;entryDy=0;exitX=0.5;exitY=0;exitDx=0;exitDy=0;" parent="1" source="WMLubfFGsWbqZAyWGMQB-52" target="WMLubfFGsWbqZAyWGMQB-56" edge="1">
          <mxGeometry relative="1" as="geometry">
            <mxPoint x="300" y="640" as="sourcePoint" />
          </mxGeometry>
        </mxCell>
        <mxCell id="WMLubfFGsWbqZAyWGMQB-69" style="edgeStyle=orthogonalEdgeStyle;rounded=0;orthogonalLoop=1;jettySize=auto;html=1;entryX=0.5;entryY=0;entryDx=0;entryDy=0;exitX=1;exitY=0.5;exitDx=0;exitDy=0;" parent="1" source="WMLubfFGsWbqZAyWGMQB-63" target="WMLubfFGsWbqZAyWGMQB-70" edge="1">
          <mxGeometry relative="1" as="geometry">
            <mxPoint x="260" y="835" as="targetPoint" />
            <mxPoint x="355" y="775" as="sourcePoint" />
            <Array as="points">
              <mxPoint x="375" y="780" />
              <mxPoint x="375" y="825" />
              <mxPoint x="260" y="825" />
            </Array>
          </mxGeometry>
        </mxCell>
        <mxCell id="WMLubfFGsWbqZAyWGMQB-124" style="edgeStyle=orthogonalEdgeStyle;rounded=0;orthogonalLoop=1;jettySize=auto;html=1;exitX=0;exitY=0.5;exitDx=0;exitDy=0;" parent="1" source="WMLubfFGsWbqZAyWGMQB-63" edge="1">
          <mxGeometry relative="1" as="geometry">
            <mxPoint x="260" y="873" as="targetPoint" />
            <mxPoint x="165" y="783" as="sourcePoint" />
            <Array as="points">
              <mxPoint x="145" y="780" />
              <mxPoint x="145" y="873" />
            </Array>
          </mxGeometry>
        </mxCell>
        <mxCell id="WMLubfFGsWbqZAyWGMQB-63" value="суперключ(обяз_атр, R)&amp;nbsp;&lt;div&gt;== истина ?&lt;/div&gt;" style="rhombus;whiteSpace=wrap;html=1;" parent="1" vertex="1">
          <mxGeometry x="170" y="740" width="180" height="80" as="geometry" />
        </mxCell>
        <mxCell id="WMLubfFGsWbqZAyWGMQB-79" style="edgeStyle=orthogonalEdgeStyle;rounded=0;orthogonalLoop=1;jettySize=auto;html=1;entryX=0.5;entryY=0;entryDx=0;entryDy=0;" parent="1" source="WMLubfFGsWbqZAyWGMQB-70" target="WMLubfFGsWbqZAyWGMQB-76" edge="1">
          <mxGeometry relative="1" as="geometry" />
        </mxCell>
        <mxCell id="WMLubfFGsWbqZAyWGMQB-70" value="канд_ключи := ∅" style="rounded=0;whiteSpace=wrap;html=1;" parent="1" vertex="1">
          <mxGeometry x="170" y="837" width="180" height="30" as="geometry" />
        </mxCell>
        <mxCell id="WMLubfFGsWbqZAyWGMQB-80" style="edgeStyle=orthogonalEdgeStyle;rounded=0;orthogonalLoop=1;jettySize=auto;html=1;entryX=0.5;entryY=0;entryDx=0;entryDy=0;" parent="1" source="WMLubfFGsWbqZAyWGMQB-76" target="WMLubfFGsWbqZAyWGMQB-78" edge="1">
          <mxGeometry relative="1" as="geometry" />
        </mxCell>
        <mxCell id="WMLubfFGsWbqZAyWGMQB-76" value="Для r от 0 до |B|" style="shape=loopLimit;whiteSpace=wrap;html=1;" parent="1" vertex="1">
          <mxGeometry x="170" y="889" width="180" height="30" as="geometry" />
        </mxCell>
        <mxCell id="WMLubfFGsWbqZAyWGMQB-83" style="edgeStyle=orthogonalEdgeStyle;rounded=0;orthogonalLoop=1;jettySize=auto;html=1;entryX=0.5;entryY=0;entryDx=0;entryDy=0;" parent="1" source="WMLubfFGsWbqZAyWGMQB-78" target="WMLubfFGsWbqZAyWGMQB-138" edge="1">
          <mxGeometry relative="1" as="geometry">
            <mxPoint x="260" y="1040" as="targetPoint" />
          </mxGeometry>
        </mxCell>
        <mxCell id="WMLubfFGsWbqZAyWGMQB-78" value="Для каждого подмножество_i&amp;nbsp;&lt;div&gt;∈ Комбинации(B, r)&amp;nbsp;&lt;/div&gt;" style="shape=loopLimit;whiteSpace=wrap;html=1;" parent="1" vertex="1">
          <mxGeometry x="170" y="932" width="180" height="50" as="geometry" />
        </mxCell>
        <mxCell id="WMLubfFGsWbqZAyWGMQB-130" value="Нет" style="edgeLabel;html=1;align=center;verticalAlign=middle;resizable=0;points=[];" parent="1" vertex="1" connectable="0">
          <mxGeometry x="165" y="770" as="geometry">
            <mxPoint x="-10" y="2" as="offset" />
          </mxGeometry>
        </mxCell>
        <mxCell id="WMLubfFGsWbqZAyWGMQB-134" value="Да" style="edgeLabel;html=1;align=center;verticalAlign=middle;resizable=0;points=[];" parent="1" vertex="1" connectable="0">
          <mxGeometry x="363" y="772" as="geometry" />
        </mxCell>
        <mxCell id="WMLubfFGsWbqZAyWGMQB-138" value="А" style="ellipse;whiteSpace=wrap;html=1;aspect=fixed;" parent="1" vertex="1">
          <mxGeometry x="240" y="996" width="40" height="40" as="geometry" />
        </mxCell>
        <mxCell id="tE1AYxcDRsQX5OE6kqUB-2" style="edgeStyle=orthogonalEdgeStyle;rounded=0;orthogonalLoop=1;jettySize=auto;html=1;entryX=0.5;entryY=0;entryDx=0;entryDy=0;exitX=0.5;exitY=1;exitDx=0;exitDy=0;" edge="1" parent="1" source="tE1AYxcDRsQX5OE6kqUB-1" target="WMLubfFGsWbqZAyWGMQB-57">
          <mxGeometry relative="1" as="geometry">
            <mxPoint x="260" y="360" as="sourcePoint" />
          </mxGeometry>
        </mxCell>
        <mxCell id="tE1AYxcDRsQX5OE6kqUB-1" value="Начало" style="rounded=1;whiteSpace=wrap;html=1;arcSize=100;absoluteArcSize=1;" vertex="1" parent="1">
          <mxGeometry x="170" y="337" width="180" height="20" as="geometry" />
        </mxCell>
      </root>
    </mxGraphModel>
  </diagram>
  <diagram id="WfhbplVz7fqxdFfpJFTo" name="Страница — 2">
    <mxGraphModel dx="826" dy="459" grid="1" gridSize="10" guides="1" tooltips="1" connect="1" arrows="1" fold="1" page="1" pageScale="1" pageWidth="827" pageHeight="1169" math="0" shadow="0">
      <root>
        <mxCell id="0" />
        <mxCell id="1" parent="0" />
        <mxCell id="xsWwSMjTffkjm5Y3F-H0-1" style="edgeStyle=orthogonalEdgeStyle;rounded=0;orthogonalLoop=1;jettySize=auto;html=1;entryX=0.5;entryY=0;entryDx=0;entryDy=0;exitX=1;exitY=0.5;exitDx=0;exitDy=0;" parent="1" source="xsWwSMjTffkjm5Y3F-H0-3" target="xsWwSMjTffkjm5Y3F-H0-7" edge="1">
          <mxGeometry relative="1" as="geometry">
            <Array as="points">
              <mxPoint x="585" y="607" />
              <mxPoint x="585" y="650" />
              <mxPoint x="472" y="650" />
            </Array>
          </mxGeometry>
        </mxCell>
        <mxCell id="xsWwSMjTffkjm5Y3F-H0-2" style="edgeStyle=orthogonalEdgeStyle;rounded=0;orthogonalLoop=1;jettySize=auto;html=1;exitX=0;exitY=0.5;exitDx=0;exitDy=0;" parent="1" source="xsWwSMjTffkjm5Y3F-H0-3" edge="1">
          <mxGeometry relative="1" as="geometry">
            <mxPoint x="472" y="1130" as="targetPoint" />
            <Array as="points">
              <mxPoint x="326" y="607" />
              <mxPoint x="326" y="1130" />
              <mxPoint x="472" y="1130" />
            </Array>
            <mxPoint x="381.97" y="604" as="sourcePoint" />
          </mxGeometry>
        </mxCell>
        <mxCell id="xsWwSMjTffkjm5Y3F-H0-3" value="суперключ(обяз_атр, R)&amp;nbsp;&lt;div&gt;== истина ?&lt;/div&gt;" style="rhombus;whiteSpace=wrap;html=1;" parent="1" vertex="1">
          <mxGeometry x="379.97" y="567" width="185" height="80" as="geometry" />
        </mxCell>
        <mxCell id="1Wgt8UPFNTKgRV1uAhiA-2" style="edgeStyle=orthogonalEdgeStyle;rounded=0;orthogonalLoop=1;jettySize=auto;html=1;entryX=0.5;entryY=0;entryDx=0;entryDy=0;exitX=0.5;exitY=1;exitDx=0;exitDy=0;" edge="1" parent="1" source="xsWwSMjTffkjm5Y3F-H0-5" target="xsWwSMjTffkjm5Y3F-H0-3">
          <mxGeometry relative="1" as="geometry" />
        </mxCell>
        <mxCell id="xsWwSMjTffkjm5Y3F-H0-5" value="канд_ключ := подмножество_i ∪ обяз_атр" style="rounded=0;whiteSpace=wrap;html=1;" parent="1" vertex="1">
          <mxGeometry x="382.45000000000005" y="511" width="180.03" height="42" as="geometry" />
        </mxCell>
        <mxCell id="xsWwSMjTffkjm5Y3F-H0-6" style="edgeStyle=orthogonalEdgeStyle;rounded=0;orthogonalLoop=1;jettySize=auto;html=1;entryX=0.5;entryY=0;entryDx=0;entryDy=0;" parent="1" source="xsWwSMjTffkjm5Y3F-H0-7" target="xsWwSMjTffkjm5Y3F-H0-9" edge="1">
          <mxGeometry relative="1" as="geometry" />
        </mxCell>
        <mxCell id="xsWwSMjTffkjm5Y3F-H0-7" value="минимальный:= истина" style="rounded=0;whiteSpace=wrap;html=1;" parent="1" vertex="1">
          <mxGeometry x="382" y="671" width="180" height="25" as="geometry" />
        </mxCell>
        <mxCell id="xsWwSMjTffkjm5Y3F-H0-8" style="edgeStyle=orthogonalEdgeStyle;rounded=0;orthogonalLoop=1;jettySize=auto;html=1;entryX=0.5;entryY=0;entryDx=0;entryDy=0;" parent="1" source="xsWwSMjTffkjm5Y3F-H0-9" target="xsWwSMjTffkjm5Y3F-H0-12" edge="1">
          <mxGeometry relative="1" as="geometry" />
        </mxCell>
        <mxCell id="xsWwSMjTffkjm5Y3F-H0-9" value="Для каждого ключ ∈ канд_ключи&amp;nbsp;" style="shape=loopLimit;whiteSpace=wrap;html=1;" parent="1" vertex="1">
          <mxGeometry x="382" y="713" width="180" height="37" as="geometry" />
        </mxCell>
        <mxCell id="xsWwSMjTffkjm5Y3F-H0-10" style="edgeStyle=orthogonalEdgeStyle;rounded=0;orthogonalLoop=1;jettySize=auto;html=1;exitX=1;exitY=0.5;exitDx=0;exitDy=0;entryX=0.5;entryY=0;entryDx=0;entryDy=0;" parent="1" target="xsWwSMjTffkjm5Y3F-H0-14" edge="1">
          <mxGeometry relative="1" as="geometry">
            <mxPoint x="451.97" y="857" as="targetPoint" />
            <mxPoint x="545.97" y="812" as="sourcePoint" />
            <Array as="points">
              <mxPoint x="580.97" y="812" />
              <mxPoint x="580.97" y="847" />
              <mxPoint x="471.97" y="847" />
            </Array>
          </mxGeometry>
        </mxCell>
        <mxCell id="xsWwSMjTffkjm5Y3F-H0-11" style="edgeStyle=orthogonalEdgeStyle;rounded=0;orthogonalLoop=1;jettySize=auto;html=1;exitX=0;exitY=0.5;exitDx=0;exitDy=0;" parent="1" source="xsWwSMjTffkjm5Y3F-H0-12" edge="1">
          <mxGeometry relative="1" as="geometry">
            <mxPoint x="471.97" y="772" as="targetPoint" />
            <mxPoint x="396.97" y="811" as="sourcePoint" />
            <Array as="points">
              <mxPoint x="376.97" y="812" />
              <mxPoint x="376.97" y="772" />
            </Array>
          </mxGeometry>
        </mxCell>
        <mxCell id="xsWwSMjTffkjm5Y3F-H0-12" value="ключ&amp;nbsp;⊂ канд_ключ ?" style="rhombus;whiteSpace=wrap;html=1;" parent="1" vertex="1">
          <mxGeometry x="382" y="787" width="180" height="50" as="geometry" />
        </mxCell>
        <mxCell id="xsWwSMjTffkjm5Y3F-H0-13" style="edgeStyle=orthogonalEdgeStyle;rounded=0;orthogonalLoop=1;jettySize=auto;html=1;entryX=0.5;entryY=1;entryDx=0;entryDy=0;" parent="1" source="xsWwSMjTffkjm5Y3F-H0-14" target="xsWwSMjTffkjm5Y3F-H0-16" edge="1">
          <mxGeometry relative="1" as="geometry" />
        </mxCell>
        <mxCell id="xsWwSMjTffkjm5Y3F-H0-14" value="минимальный:= ложь" style="rounded=0;whiteSpace=wrap;html=1;" parent="1" vertex="1">
          <mxGeometry x="382" y="861" width="180" height="19" as="geometry" />
        </mxCell>
        <mxCell id="xsWwSMjTffkjm5Y3F-H0-15" value="" style="group" parent="1" vertex="1" connectable="0">
          <mxGeometry x="382" y="893" width="180" height="42.83" as="geometry" />
        </mxCell>
        <mxCell id="xsWwSMjTffkjm5Y3F-H0-16" value="" style="shape=loopLimit;whiteSpace=wrap;html=1;rotation=-180;" parent="xsWwSMjTffkjm5Y3F-H0-15" vertex="1">
          <mxGeometry x="-3.362189601388487e-15" y="-4.62289919073448e-15" width="180" height="42.82999999999999" as="geometry" />
        </mxCell>
        <mxCell id="xsWwSMjTffkjm5Y3F-H0-17" value="&lt;font style=&quot;font-size: 12px;&quot;&gt;Конец цикла по&amp;nbsp;&lt;/font&gt;&lt;span style=&quot;font-size: 12px;&quot;&gt;ключ ∈ канд_ключи&lt;/span&gt;" style="text;strokeColor=none;fillColor=none;html=1;align=center;verticalAlign=middle;whiteSpace=wrap;rounded=0;fontSize=16;" parent="xsWwSMjTffkjm5Y3F-H0-15" vertex="1">
          <mxGeometry x="13.52419558359621" y="-0.00019292116057023634" width="152.95268138801265" height="37.95038584232112" as="geometry" />
        </mxCell>
        <mxCell id="xsWwSMjTffkjm5Y3F-H0-18" style="edgeStyle=orthogonalEdgeStyle;rounded=0;orthogonalLoop=1;jettySize=auto;html=1;entryX=0.5;entryY=0;entryDx=0;entryDy=0;exitX=1;exitY=0.5;exitDx=0;exitDy=0;" parent="1" source="xsWwSMjTffkjm5Y3F-H0-20" target="xsWwSMjTffkjm5Y3F-H0-23" edge="1">
          <mxGeometry relative="1" as="geometry">
            <Array as="points">
              <mxPoint x="579" y="982" />
              <mxPoint x="579" y="1015" />
              <mxPoint x="472" y="1015" />
            </Array>
          </mxGeometry>
        </mxCell>
        <mxCell id="xsWwSMjTffkjm5Y3F-H0-19" style="edgeStyle=orthogonalEdgeStyle;rounded=0;orthogonalLoop=1;jettySize=auto;html=1;exitX=0;exitY=0.5;exitDx=0;exitDy=0;" parent="1" source="xsWwSMjTffkjm5Y3F-H0-20" edge="1">
          <mxGeometry relative="1" as="geometry">
            <mxPoint x="472" y="1120" as="targetPoint" />
            <Array as="points">
              <mxPoint x="336" y="982" />
              <mxPoint x="336" y="1120" />
              <mxPoint x="472" y="1120" />
            </Array>
            <mxPoint x="382" y="980" as="sourcePoint" />
          </mxGeometry>
        </mxCell>
        <mxCell id="xsWwSMjTffkjm5Y3F-H0-20" value="минимальный ==&lt;div&gt;истина ?&lt;/div&gt;" style="rhombus;whiteSpace=wrap;html=1;" parent="1" vertex="1">
          <mxGeometry x="382" y="952" width="180" height="60" as="geometry" />
        </mxCell>
        <mxCell id="xsWwSMjTffkjm5Y3F-H0-21" style="edgeStyle=orthogonalEdgeStyle;rounded=0;orthogonalLoop=1;jettySize=auto;html=1;entryX=0.5;entryY=0;entryDx=0;entryDy=0;exitX=0.5;exitY=0;exitDx=0;exitDy=0;" parent="1" source="xsWwSMjTffkjm5Y3F-H0-16" target="xsWwSMjTffkjm5Y3F-H0-20" edge="1">
          <mxGeometry relative="1" as="geometry">
            <mxPoint x="471.97" y="977" as="sourcePoint" />
          </mxGeometry>
        </mxCell>
        <mxCell id="1Wgt8UPFNTKgRV1uAhiA-4" style="edgeStyle=orthogonalEdgeStyle;rounded=0;orthogonalLoop=1;jettySize=auto;html=1;entryX=0.5;entryY=0;entryDx=0;entryDy=0;exitX=0.5;exitY=1;exitDx=0;exitDy=0;" edge="1" parent="1" source="xsWwSMjTffkjm5Y3F-H0-23" target="xsWwSMjTffkjm5Y3F-H0-25">
          <mxGeometry relative="1" as="geometry">
            <mxPoint x="471" y="1069" as="sourcePoint" />
            <mxPoint x="470" y="1092" as="targetPoint" />
          </mxGeometry>
        </mxCell>
        <mxCell id="xsWwSMjTffkjm5Y3F-H0-23" value="канд_ключи&amp;nbsp;← {k ∈ канд_ключи | канд_ключ ⊄ k}&amp;nbsp;" style="rounded=0;whiteSpace=wrap;html=1;" parent="1" vertex="1">
          <mxGeometry x="382" y="1029" width="180" height="32" as="geometry" />
        </mxCell>
        <mxCell id="1Wgt8UPFNTKgRV1uAhiA-5" style="edgeStyle=orthogonalEdgeStyle;rounded=0;orthogonalLoop=1;jettySize=auto;html=1;entryX=0.5;entryY=1;entryDx=0;entryDy=0;" edge="1" parent="1" source="xsWwSMjTffkjm5Y3F-H0-25" target="xsWwSMjTffkjm5Y3F-H0-27">
          <mxGeometry relative="1" as="geometry" />
        </mxCell>
        <mxCell id="xsWwSMjTffkjm5Y3F-H0-25" value="канд_ключи&amp;nbsp;← канд_ключи ∪&amp;nbsp;{канд_ключ}&amp;nbsp;" style="rounded=0;whiteSpace=wrap;html=1;" parent="1" vertex="1">
          <mxGeometry x="382" y="1074" width="180" height="38" as="geometry" />
        </mxCell>
        <mxCell id="xsWwSMjTffkjm5Y3F-H0-26" value="" style="group" parent="1" vertex="1" connectable="0">
          <mxGeometry x="382" y="1146" width="180" height="60" as="geometry" />
        </mxCell>
        <mxCell id="xsWwSMjTffkjm5Y3F-H0-27" value="" style="shape=loopLimit;whiteSpace=wrap;html=1;rotation=-180;" parent="xsWwSMjTffkjm5Y3F-H0-26" vertex="1">
          <mxGeometry width="180.00000000000003" height="60" as="geometry" />
        </mxCell>
        <mxCell id="xsWwSMjTffkjm5Y3F-H0-28" value="&lt;font style=&quot;font-size: 12px;&quot;&gt;Конец цикла по&amp;nbsp;&lt;/font&gt;&lt;span style=&quot;font-size: 12px;&quot;&gt;подмножество_i ∈ Комбинации (B, r)&lt;/span&gt;" style="text;strokeColor=none;fillColor=none;html=1;align=center;verticalAlign=middle;whiteSpace=wrap;rounded=0;fontSize=16;" parent="xsWwSMjTffkjm5Y3F-H0-26" vertex="1">
          <mxGeometry x="6.42857142857143" y="5" width="167.14285714285717" height="50" as="geometry" />
        </mxCell>
        <mxCell id="xsWwSMjTffkjm5Y3F-H0-29" value="" style="group" parent="1" vertex="1" connectable="0">
          <mxGeometry x="380" y="1220" width="182" height="40" as="geometry" />
        </mxCell>
        <mxCell id="xsWwSMjTffkjm5Y3F-H0-30" value="" style="shape=loopLimit;whiteSpace=wrap;html=1;rotation=-180;" parent="xsWwSMjTffkjm5Y3F-H0-29" vertex="1">
          <mxGeometry x="2" width="180" height="30" as="geometry" />
        </mxCell>
        <mxCell id="xsWwSMjTffkjm5Y3F-H0-31" value="&lt;font style=&quot;font-size: 12px;&quot;&gt;Конец цикла по&amp;nbsp;&lt;/font&gt;&lt;span style=&quot;font-size: 12px;&quot;&gt;r от 0 до |B|&lt;/span&gt;" style="text;strokeColor=none;fillColor=none;html=1;align=center;verticalAlign=middle;whiteSpace=wrap;rounded=0;fontSize=16;" parent="xsWwSMjTffkjm5Y3F-H0-29" vertex="1">
          <mxGeometry x="12" y="4" width="160" height="13.34" as="geometry" />
        </mxCell>
        <mxCell id="xsWwSMjTffkjm5Y3F-H0-32" style="edgeStyle=orthogonalEdgeStyle;rounded=0;orthogonalLoop=1;jettySize=auto;html=1;entryX=0.5;entryY=1;entryDx=0;entryDy=0;exitX=0.5;exitY=0;exitDx=0;exitDy=0;" parent="1" source="xsWwSMjTffkjm5Y3F-H0-27" target="xsWwSMjTffkjm5Y3F-H0-30" edge="1">
          <mxGeometry relative="1" as="geometry">
            <mxPoint x="475.94000000000005" y="1210" as="sourcePoint" />
          </mxGeometry>
        </mxCell>
        <mxCell id="xsWwSMjTffkjm5Y3F-H0-33" style="edgeStyle=orthogonalEdgeStyle;rounded=0;orthogonalLoop=1;jettySize=auto;html=1;entryX=0.5;entryY=0;entryDx=0;entryDy=0;" parent="1" source="xsWwSMjTffkjm5Y3F-H0-34" target="xsWwSMjTffkjm5Y3F-H0-36" edge="1">
          <mxGeometry relative="1" as="geometry" />
        </mxCell>
        <mxCell id="xsWwSMjTffkjm5Y3F-H0-34" value="Выход: канд_ключи" style="shape=parallelogram;perimeter=parallelogramPerimeter;whiteSpace=wrap;html=1;fixedSize=1;" parent="1" vertex="1">
          <mxGeometry x="382" y="1263" width="180" height="40" as="geometry" />
        </mxCell>
        <mxCell id="xsWwSMjTffkjm5Y3F-H0-35" style="edgeStyle=orthogonalEdgeStyle;rounded=0;orthogonalLoop=1;jettySize=auto;html=1;entryX=0.5;entryY=0;entryDx=0;entryDy=0;exitX=0.5;exitY=0;exitDx=0;exitDy=0;" parent="1" source="xsWwSMjTffkjm5Y3F-H0-30" target="xsWwSMjTffkjm5Y3F-H0-34" edge="1">
          <mxGeometry relative="1" as="geometry" />
        </mxCell>
        <mxCell id="xsWwSMjTffkjm5Y3F-H0-36" value="Конец" style="rounded=1;whiteSpace=wrap;html=1;arcSize=100;absoluteArcSize=1;" parent="1" vertex="1">
          <mxGeometry x="382" y="1320" width="180" height="20" as="geometry" />
        </mxCell>
        <mxCell id="xsWwSMjTffkjm5Y3F-H0-37" value="Нет" style="edgeLabel;html=1;align=center;verticalAlign=middle;resizable=0;points=[];" parent="1" vertex="1" connectable="0">
          <mxGeometry x="350" y="595" as="geometry">
            <mxPoint x="-10" y="2" as="offset" />
          </mxGeometry>
        </mxCell>
        <mxCell id="xsWwSMjTffkjm5Y3F-H0-38" value="Нет" style="edgeLabel;html=1;align=center;verticalAlign=middle;resizable=0;points=[];" parent="1" vertex="1" connectable="0">
          <mxGeometry x="360.97" y="970" as="geometry">
            <mxPoint x="-10" y="2" as="offset" />
          </mxGeometry>
        </mxCell>
        <mxCell id="xsWwSMjTffkjm5Y3F-H0-39" value="Нет" style="edgeLabel;html=1;align=center;verticalAlign=middle;resizable=0;points=[];" parent="1" vertex="1" connectable="0">
          <mxGeometry x="385.97" y="838" as="geometry">
            <mxPoint x="4" y="-50" as="offset" />
          </mxGeometry>
        </mxCell>
        <mxCell id="xsWwSMjTffkjm5Y3F-H0-40" value="Да" style="edgeLabel;html=1;align=center;verticalAlign=middle;resizable=0;points=[];" parent="1" vertex="1" connectable="0">
          <mxGeometry x="599.97" y="610" as="geometry">
            <mxPoint x="-25" y="-11" as="offset" />
          </mxGeometry>
        </mxCell>
        <mxCell id="xsWwSMjTffkjm5Y3F-H0-41" value="Да" style="edgeLabel;html=1;align=center;verticalAlign=middle;resizable=0;points=[];" parent="1" vertex="1" connectable="0">
          <mxGeometry x="623" y="813" as="geometry">
            <mxPoint x="-53" y="-11" as="offset" />
          </mxGeometry>
        </mxCell>
        <mxCell id="xsWwSMjTffkjm5Y3F-H0-42" value="Да" style="edgeLabel;html=1;align=center;verticalAlign=middle;resizable=0;points=[];" parent="1" vertex="1" connectable="0">
          <mxGeometry x="590" y="975" as="geometry">
            <mxPoint x="-23" y="-4" as="offset" />
          </mxGeometry>
        </mxCell>
        <mxCell id="xsWwSMjTffkjm5Y3F-H0-43" style="edgeStyle=orthogonalEdgeStyle;rounded=0;orthogonalLoop=1;jettySize=auto;html=1;entryX=0.5;entryY=0;entryDx=0;entryDy=0;" parent="1" source="xsWwSMjTffkjm5Y3F-H0-44" target="xsWwSMjTffkjm5Y3F-H0-5" edge="1">
          <mxGeometry relative="1" as="geometry">
            <Array as="points">
              <mxPoint x="472.45000000000005" y="501" />
              <mxPoint x="472.45000000000005" y="501" />
            </Array>
          </mxGeometry>
        </mxCell>
        <mxCell id="xsWwSMjTffkjm5Y3F-H0-44" value="А" style="ellipse;whiteSpace=wrap;html=1;aspect=fixed;" parent="1" vertex="1">
          <mxGeometry x="452.45000000000005" y="461" width="40" height="40" as="geometry" />
        </mxCell>
      </root>
    </mxGraphModel>
  </diagram>
</mxfile>
